<?xml version="1.0" standalone="no"?>
<!DOCTYPE svg PUBLIC "-//W3C//DTD SVG 20010904//EN"
 "http://www.w3.org/TR/2001/REC-SVG-20010904/DTD/svg10.dtd">
<svg version="1.0" xmlns="http://www.w3.org/2000/svg"
 width="24.000000pt" height="24.000000pt" viewBox="0 0 24.000000 24.000000"
 preserveAspectRatio="xMidYMid meet">

<g transform="translate(0.000000,24.000000) scale(0.100000,-0.100000)"
fill="#000000" stroke="none">
<path d="M108 213 c-2 -19 -10 -29 -23 -31 -34 -7 -55 -33 -55 -68 0 -41 34
-67 82 -62 l33 3 3 93 c3 86 1 92 -17 92 -14 0 -21 -8 -23 -27z m32 -68 l0
-85 -34 0 c-42 0 -66 22 -66 59 0 33 14 48 50 53 19 2 26 10 28 31 2 15 8 27
13 27 5 0 9 -38 9 -85z"/>
<path d="M74 136 c-10 -26 1 -51 21 -51 15 0 21 8 23 33 3 27 0 32 -18 32 -11
0 -23 -6 -26 -14z m36 -22 c0 -31 -23 -28 -28 4 -2 15 2 22 12 22 11 0 16 -9
16 -26z"/>
<path d="M170 215 c0 -18 5 -25 20 -25 15 0 20 7 20 25 0 18 -5 25 -20 25 -15
0 -20 -7 -20 -25z m30 0 c0 -8 -4 -15 -10 -15 -5 0 -10 7 -10 15 0 8 5 15 10
15 6 0 10 -7 10 -15z"/>
<path d="M167 113 c-5 -45 -12 -72 -23 -80 -14 -10 -13 -13 6 -23 18 -9 25 -8
41 6 15 14 19 31 19 91 0 64 -2 73 -19 73 -15 0 -19 -11 -24 -67z m33 -6 c0
-66 -17 -106 -39 -93 -8 6 -9 11 -1 20 5 7 13 41 16 75 9 80 24 79 24 -2z"/>
</g>
</svg>
