<?xml version="1.0" standalone="no"?>
<!DOCTYPE svg PUBLIC "-//W3C//DTD SVG 20010904//EN"
 "http://www.w3.org/TR/2001/REC-SVG-20010904/DTD/svg10.dtd">
<svg version="1.0" xmlns="http://www.w3.org/2000/svg"
 width="1462.000000pt" height="1462.000000pt" viewBox="0 0 1462.000000 1462.000000"
 preserveAspectRatio="xMidYMid meet">

<g transform="translate(0.000000,1462.000000) scale(0.100000,-0.100000)"
fill="#000000" stroke="none">
<path d="M7060 14598 c-817 -22 -1545 -194 -2075 -490 -629 -351 -1020 -857
-1137 -1473 -20 -105 -21 -149 -25 -972 l-5 -863 1589 -2 1588 -3 3 -157 3
-158 -2473 -3 c-2736 -4 -2518 2 -2777 -68 -329 -88 -616 -251 -871 -495 -491
-472 -779 -1208 -850 -2172 -13 -185 -13 -704 0 -880 56 -737 237 -1341 534
-1786 103 -154 141 -201 271 -335 308 -317 648 -498 1110 -588 81 -15 182 -17
982 -20 l893 -4 0 -927 c0 -510 5 -984 10 -1053 32 -434 215 -837 536 -1178
319 -339 787 -604 1355 -770 717 -208 1740 -258 2609 -125 781 119 1423 400
1849 809 362 348 570 753 620 1207 7 61 11 401 11 908 l0 810 -1590 0 -1590 0
0 160 0 160 2428 0 c1560 0 2459 4 2517 10 796 89 1420 601 1755 1440 141 354
227 749 272 1250 16 179 16 756 0 945 -71 828 -289 1468 -662 1935 -77 97
-266 283 -355 351 -217 166 -470 289 -724 354 -233 59 -212 58 -1168 62 l-882
4 -4 1032 c-3 1013 -4 1034 -25 1146 -174 906 -958 1568 -2157 1820 -330 70
-674 109 -1020 117 -121 2 -236 6 -255 7 -19 1 -150 -1 -290 -5z m836 -652
c899 -87 1514 -326 1915 -743 184 -193 293 -395 340 -636 18 -94 19 -169 19
-2096 0 -1696 -2 -2011 -14 -2074 -42 -220 -157 -414 -329 -557 -88 -74 -260
-161 -377 -192 l-85 -22 -2080 -6 c-2070 -6 -2080 -6 -2176 -27 -326 -72 -581
-210 -812 -440 -166 -166 -278 -339 -368 -566 -61 -156 -88 -273 -99 -442 -5
-71 -9 -413 -10 -758 l0 -628 -857 4 c-932 4 -915 3 -1105 63 -457 143 -810
543 -1020 1154 -241 704 -251 1824 -22 2578 188 619 562 1066 1019 1216 201
66 -70 60 3008 63 l2787 3 0 795 0 795 -1585 0 -1585 0 0 504 c0 552 4 600 60
768 80 237 241 462 462 641 438 355 1088 562 1933 617 203 13 789 4 981 -14z
m4792 -4139 c313 -82 568 -257 773 -530 247 -329 402 -750 479 -1297 37 -264
51 -759 30 -1055 -66 -903 -349 -1558 -824 -1910 -192 -142 -412 -223 -666
-245 -73 -6 -1096 -10 -2797 -10 l-2683 0 0 -790 0 -790 1585 0 1585 0 0 -519
c0 -427 -3 -533 -16 -601 -66 -350 -294 -665 -654 -905 -408 -272 -934 -432
-1635 -497 -189 -18 -912 -17 -1100 0 -581 55 -1033 172 -1415 368 -498 255
-824 658 -880 1089 -8 67 -10 606 -8 2080 3 1854 5 1994 21 2054 111 406 428
685 830 730 65 8 729 11 2076 11 1920 0 1982 1 2094 20 700 119 1239 693 1316
1402 7 58 11 363 11 763 l0 666 888 -3 887 -4 103 -27z"/>
<path d="M5645 13014 c-106 -17 -238 -76 -318 -143 -252 -211 -305 -568 -125
-836 82 -124 197 -210 348 -261 83 -28 271 -27 365 3 209 66 381 249 430 454
19 82 19 228 0 304 -54 212 -233 397 -445 459 -56 17 -202 28 -255 20z"/>
<path d="M8770 2844 c-214 -46 -408 -225 -476 -441 -24 -76 -29 -225 -10 -312
26 -121 77 -213 176 -311 97 -97 190 -150 306 -175 327 -69 653 126 750 450
27 90 25 269 -5 355 -37 106 -89 190 -165 265 -153 151 -368 214 -576 169z"/>
</g>
</svg>
